<svg preserveAspectRatio="xMidYMid meet" viewBox="57.4015039039039 690.1770240000001 907.1471471471472 513.024" xmlns="http://www.w3.org/2000/svg" version="1.0" style="max-height: 500px" width="907.1471471471472" height="513.024">

<g stroke="none" fill="#000000" transform="translate(0.000000,1536.000000) scale(0.100000,-0.100000)">
<path d="M9240 8005 l0 -4015 -4185 0 -4185 0 0 -345 0 -345 60 0 60 0 0 280&#10;0 280 4180 0 4180 0 0 4080 0 4080 -55 0 -55 0 0 -4015z"/>
<path d="M4101 7560 c-104 -22 -207 -114 -230 -206 -6 -24 -11 -68 -11 -100 0&#10;-153 63 -220 295 -313 120 -48 145 -75 145 -154 0 -42 -5 -54 -32 -81 -70 -70&#10;-225 -54 -354 35 l-44 30 0 -104 0 -104 56 -27 c211 -103 438 -47 520 128 32&#10;69 34 199 3 266 -38 83 -84 118 -239 180 -123 49 -157 73 -172 121 -43 146&#10;142 212 325 116 34 -17 65 -33 70 -35 4 -2 7 37 7 86 0 88 -1 91 -27 110 -68&#10;47 -217 72 -312 52z"/>
<path d="M1176 7503 c-3 -27 -17 -174 -31 -328 -14 -154 -35 -367 -45 -472&#10;-11 -106 -20 -195 -20 -198 0 -3 37 -5 83 -5 l83 0 22 253 c13 138 25 289 29&#10;334 6 80 15 97 27 50 5 -21 140 -320 248 -549 39 -84 43 -88 73 -88 18 0 37 6&#10;42 13 8 10 104 221 284 622 l23 50 7 -85 c4 -47 18 -201 30 -342 l23 -258 83&#10;0 c68 0 83 3 83 15 0 9 -16 163 -35 343 -19 180 -42 392 -50 472 -8 80 -18&#10;162 -21 183 l-6 38 -66 -3 -66 -3 -153 -345 c-84 -190 -157 -358 -163 -374 -5&#10;-16 -12 -27 -14 -25 -3 4 -222 500 -296 672 l-34 77 -67 0 -66 0 -7 -47z"/>
<path d="M2620 7206 c0 -189 5 -367 10 -396 23 -123 95 -223 197 -278 203&#10;-107 444 -42 557 151 49 82 56 149 56 525 l0 342 -89 0 -90 0 -3 -357 -3 -358&#10;-25 -50 c-16 -32 -41 -61 -68 -80 -41 -28 -50 -30 -132 -30 -82 0 -91 2 -132&#10;30 -28 20 -52 49 -70 84 l-28 55 0 353 0 353 -90 0 -90 0 0 -344z"/>
<path d="M4920 7025 l0 -525 325 0 325 0 0 90 0 90 -240 0 -241 0 3 151 3 151&#10;198 -2 197 -1 0 86 0 85 -200 0 -200 0 0 115 0 115 230 0 230 0 0 85 0 85&#10;-315 0 -315 0 0 -525z"/>
<path d="M5990 7198 c0 -382 6 -441 55 -524 36 -62 127 -139 193 -165 77 -30&#10;241 -33 320 -6 112 39 206 138 242 253 20 66 22 126 21 577 l-1 217 -89 0 -88&#10;0 1 -347 c1 -343 1 -349 -22 -398 -44 -95 -104 -134 -208 -135 -110 0 -175 36&#10;-218 122 l-26 52 0 353 0 353 -90 0 -90 0 0 -352z"/>
<path d="M7336 7498 c-3 -29 -13 -125 -21 -213 -50 -531 -66 -695 -71 -737&#10;l-7 -48 85 0 85 0 13 143 c7 78 20 230 29 336 l16 195 37 -85 c20 -46 89 -196&#10;152 -334 l116 -250 33 -3 34 -3 95 213 c52 117 119 268 149 335 30 68 57 123&#10;60 123 4 0 10 -45 14 -100 4 -55 17 -205 29 -333 l21 -232 83 -3 82 -3 0 33&#10;c0 18 -7 94 -15 168 -9 74 -24 223 -35 330 -26 250 -49 458 -56 493 -5 26 -8&#10;27 -68 27 l-63 0 -158 -357 c-86 -197 -161 -365 -165 -373 -6 -10 -12 -3 -25&#10;25 -9 22 -82 190 -163 372 l-147 333 -67 0 -67 0 -5 -52z"/>
<path d="M1080 5325 l0 -525 305 0 305 0 0 90 0 90 -215 0 -215 0 0 435 0 435&#10;-90 0 -90 0 0 -525z"/>
<path d="M2020 5518 c0 -183 5 -362 10 -397 33 -231 251 -382 493 -342 178 29&#10;301 142 342 312 12 51 15 136 15 412 l0 347 -90 0 -90 0 0 -337 c0 -212 -4&#10;-353 -11 -377 -29 -106 -107 -166 -224 -174 -63 -4 -80 -1 -127 21 -32 14 -66&#10;39 -82 60 -52 68 -56 100 -56 469 l0 338 -90 0 -90 0 0 -332z"/>
<path d="M3376 5808 c-3 -24 -24 -236 -46 -473 -22 -236 -43 -454 -46 -482&#10;l-6 -53 86 0 c83 0 86 1 86 23 0 13 11 158 25 323 14 164 25 306 26 314 0 15&#10;50 -85 114 -230 19 -41 69 -154 113 -250 79 -174 79 -175 113 -178 l34 -3 104&#10;233 c57 128 125 281 150 341 25 59 47 104 48 100 1 -5 14 -152 28 -328 14&#10;-176 28 -326 30 -332 3 -9 30 -13 89 -13 l86 0 -5 28 c-3 15 -25 227 -50 472&#10;-25 245 -47 469 -51 498 l-6 53 -66 -3 -67 -3 -159 -357 c-88 -197 -162 -358&#10;-165 -358 -4 0 -38 71 -76 158 -38 86 -110 247 -161 357 l-91 200 -66 3 -66 3&#10;-5 -43z"/>
<path d="M4865 5838 c-3 -7 -4 -242 -3 -523 l3 -510 88 -3 87 -3 0 526 0 525&#10;-85 0 c-59 0 -87 -4 -90 -12z"/>
<path d="M5500 5325 l0 -525 85 0 85 0 0 365 c0 201 3 365 8 364 4 0 18 -14&#10;32 -32 13 -18 153 -182 309 -364 l285 -333 48 0 48 0 2 525 3 525 -87 0 -88 0&#10;-2 -346 -3 -345 -295 345 -295 346 -67 0 -68 0 0 -525z"/>
<path d="M7175 5808 c-9 -24 -73 -194 -142 -378 -68 -184 -149 -399 -179 -477&#10;-30 -78 -54 -144 -54 -148 0 -3 42 -4 92 -3 l93 3 44 123 44 122 200 -2 200&#10;-3 42 -111 c23 -61 45 -116 49 -122 10 -17 176 -16 176 0 0 7 -61 175 -137&#10;373 -75 198 -162 428 -193 510 l-57 150 -80 3 -81 3 -17 -43z m171 -396 l70&#10;-197 -139 -3 c-77 -1 -141 -1 -143 1 -2 2 25 86 61 186 36 101 65 189 65 197&#10;0 41 22 -6 86 -184z"/>
<path d="M8110 5325 l0 -525 305 0 305 0 0 90 0 90 -220 0 -220 0 0 435 0 435&#10;-85 0 -85 0 0 -525z"/>
</g>
</svg>